<?xml version="1.0" encoding="UTF-8"?>
<svg width="800" height="800" viewBox="0 0 800 800" xmlns="http://www.w3.org/2000/svg">
  <filter id="noise">
    <feTurbulence type="fractalNoise" baseFrequency="0.65" numOctaves="3" stitchTiles="stitch"/>
    <feColorMatrix type="matrix" values="1 0 0 0 0 0 1 0 0 0 0 0 1 0 0 0 0 0 0.5 0" />
  </filter>
  <filter id="paper" x="-20%" y="-20%" width="140%" height="140%">
    <feTurbulence type="fractalNoise" baseFrequency="0.01" numOctaves="5"/>
    <feColorMatrix type="matrix" values="0 0 0 0 0 0 0 0 0 0 0 0 0 0 0 0 0 0 0.15 0"/>
    <feComponentTransfer>
      <feFuncR type="table" tableValues="0 0.1 0.2 0.3 0.4 0.5 0.6 0.7 0.8 0.9 1"/>
    </feComponentTransfer>
    <feGaussianBlur stdDeviation="2"/>
    <feComposite operator="in" in2="SourceGraphic"/>
  </filter>
  <filter id="grain">
    <feTurbulence baseFrequency="0.5" type="turbulence" numOctaves="8" result="noise"/>
    <feDisplacementMap in="SourceGraphic" in2="noise" scale="10" xChannelSelector="R" yChannelSelector="G" />
  </filter>
  
  <!-- Base layer -->
  <rect width="100%" height="100%" fill="#ece6d4"/>
  
  <!-- Paper texture -->
  <rect width="100%" height="100%" filter="url(#paper)"/>
  
  <!-- Horizontal fibers -->
  <g opacity="0.3">
    <rect y="50" width="100%" height="1" fill="#a68c69"/>
    <rect y="100" width="100%" height="1" fill="#a68c69"/>
    <rect y="150" width="100%" height="1" fill="#a68c69"/>
    <rect y="200" width="100%" height="1" fill="#a68c69"/>
    <rect y="250" width="100%" height="1" fill="#a68c69"/>
    <rect y="300" width="100%" height="1" fill="#a68c69"/>
    <rect y="350" width="100%" height="1" fill="#a68c69"/>
    <rect y="400" width="100%" height="1" fill="#a68c69"/>
    <rect y="450" width="100%" height="1" fill="#a68c69"/>
    <rect y="500" width="100%" height="1" fill="#a68c69"/>
    <rect y="550" width="100%" height="1" fill="#a68c69"/>
    <rect y="600" width="100%" height="1" fill="#a68c69"/>
    <rect y="650" width="100%" height="1" fill="#a68c69"/>
    <rect y="700" width="100%" height="1" fill="#a68c69"/>
    <rect y="750" width="100%" height="1" fill="#a68c69"/>
  </g>
  
  <!-- Vertical fibers -->
  <g opacity="0.2">
    <rect x="50" width="1" height="100%" fill="#a68c69"/>
    <rect x="100" width="1" height="100%" fill="#a68c69"/>
    <rect x="150" width="1" height="100%" fill="#a68c69"/>
    <rect x="200" width="1" height="100%" fill="#a68c69"/>
    <rect x="250" width="1" height="100%" fill="#a68c69"/>
    <rect x="300" width="1" height="100%" fill="#a68c69"/>
    <rect x="350" width="1" height="100%" fill="#a68c69"/>
    <rect x="400" width="1" height="100%" fill="#a68c69"/>
    <rect x="450" width="1" height="100%" fill="#a68c69"/>
    <rect x="500" width="1" height="100%" fill="#a68c69"/>
    <rect x="550" width="1" height="100%" fill="#a68c69"/>
    <rect x="600" width="1" height="100%" fill="#a68c69"/>
    <rect x="650" width="1" height="100%" fill="#a68c69"/>
    <rect x="700" width="1" height="100%" fill="#a68c69"/>
    <rect x="750" width="1" height="100%" fill="#a68c69"/>
  </g>
  
  <!-- Noise overlay -->
  <rect width="100%" height="100%" filter="url(#noise)" opacity="0.15"/>
  
  <!-- Slight discoloration spots -->
  <circle cx="200" cy="200" r="100" fill="#c2b59b" opacity="0.1"/>
  <circle cx="600" cy="700" r="150" fill="#c2b59b" opacity="0.1"/>
  <circle cx="400" cy="400" r="80" fill="#9c8c71" opacity="0.05"/>
  <circle cx="100" cy="650" r="120" fill="#9c8c71" opacity="0.05"/>
  <circle cx="750" cy="300" r="130" fill="#9c8c71" opacity="0.05"/>
  
  <!-- Add grain to entire image -->
  <rect width="100%" height="100%" filter="url(#grain)" opacity="0.05"/>
</svg>